<svg height="10" viewBox="0 0 16 10" width="16" xmlns="http://www.w3.org/2000/svg"><path d="m21.1768293 26c-.2580605 0-.4733542.03908-.6463415.125l7.0731707 5.9124816c.2871005.1440399.5055825.1440399.792683 0l7.0731707-5.9124816c-.1688059-.0839-.3735922-.125-.6219512-.125zm-1.1219513.7499997c-.0340351.1320799-.054878.2830599-.054878.4499998v7.600001c0 .2056799.0272176.3847198.0792683.5374798l5.0060976-4.3624783zm15.8963415 0-5.0365854 4.2250023 5.0060976 4.3624783c.052919-.1565.0792683-.3434399.0792683-.5562398v-7.600001c0-.1593599-.0165268-.3037599-.0487805-.4312398zm-10.2439024 4.7374821-5.0792683 4.4249982c.156601.05892.3448761.08752.5609756.08752h13.6463415c.204919 0 .3856058-.03096.5365853-.08752l-5.0792683-4.4249982c-.5073756.4191398-1.023998.8604797-1.5304878 1.2687595-.4833268.2476999-1.0410634.2476999-1.5243902 0-.5103727-.4091198-1.0228-.8459397-1.5304878-1.2687595z" fill="#bdbdbd" transform="translate(-20 -26)"/></svg>