<svg height="17" viewBox="0 0 15 17" width="15" xmlns="http://www.w3.org/2000/svg"><path d="m30 32.4615385-.395-.8264616c.52-.8029231.92125-1.8307692 1.1975-2.8455384.27-.1242308.5425-.5309231.67875-1.0618462.17125-.6682308.0575-1.2723846-.245-1.4044615.00875-.1412308.01375-.2772308.01375-.4001539 0-1.3966154-.4875-2.4087692-1.25-3.06v-.8630769h-2.5c-2.07125 0-3.75 1.3076923-3.75 3.9230769 0 .1229231.005.2589231.01375.3988462-.3025.1320769-.41625.7362307-.245 1.4044615.13625.5309231.40875.9376154.67875 1.0618462.27625 1.0160769.6775 2.043923 1.1975 2.8468461l-.395.8264616-4.30875 2.2544615c-.42375.221-.69125.6734615-.69125 1.1690769v3.1149231h15v-3.1149231c0-.4956154-.2675-.9480769-.69125-1.1690769z" fill="#bdbdbd" transform="translate(-20 -22)"/></svg>